<svg width="16" height="16" viewBox="0 0 16 16" fill="none" xmlns="http://www.w3.org/2000/svg">
<path d="M10.029 2.02535C10.468 2.13653 10.7305 2.58167 10.6153 3.0196L7.88839 13.384C7.77317 13.822 7.32384 14.0869 6.88479 13.9757C6.44573 13.8645 6.18321 13.4194 6.29843 12.9814L9.02535 2.61699C9.14057 2.17906 9.5899 1.91417 10.029 2.02535Z" fill="currentColor"/>
<path d="M5.56196 11.8336C5.21672 12.1266 4.69925 12.0844 4.40616 11.7391L2.43253 9.41425C1.85582 8.73491 1.85582 7.7379 2.43253 7.05855L4.40616 4.73369C4.69925 4.38844 5.21672 4.34616 5.56196 4.63925C5.90721 4.93233 5.94949 5.44981 5.6564 5.79505L3.68278 8.11991C3.62574 8.1871 3.62574 8.28571 3.68278 8.35289L5.6564 10.6778C5.94949 11.023 5.90721 11.5405 5.56196 11.8336Z" fill="currentColor"/>
<path d="M12.59 4.68947C12.2969 4.34423 11.7794 4.30195 11.4342 4.59503C11.0889 4.88812 11.0467 5.40559 11.3398 5.75084L13.3134 8.0757C13.3704 8.14288 13.3704 8.24149 13.3134 8.30868L11.3398 10.6335C11.0467 10.9788 11.0889 11.4963 11.4342 11.7893C11.7794 12.0824 12.2969 12.0401 12.59 11.6949L14.5636 9.37004C15.1403 8.6907 15.1403 7.69368 14.5636 7.01434L12.59 4.68947Z" fill="currentColor"/>
</svg>
